<svg xmlns="http://www.w3.org/2000/svg" width="32" height="32" viewBox="0 0 32 32" fill="none"><g clip-path="url(#clip0_2052_469)"><path d="M2 3L9 3.5L16 4.9402V29L2 25.5V3Z" fill="#81EBE1"></path><path d="M29.6 2.88421C28.8504 2.25745 27.9721 1.80339 27.0273 1.55429C26.0825 1.30519 25.0945 1.26715 24.1333 1.44287L19.0373 2.36821C17.8608 2.58426 16.7911 3.18958 16 4.08687C15.2069 3.18803 14.1341 2.58258 12.9547 2.36821L7.86667 1.44287C6.90554 1.267 5.91751 1.30454 4.9725 1.55284C4.0275 1.80114 3.14862 2.25413 2.39809 2.87975C1.64756 3.50536 1.04371 4.2883 0.62931 5.17315C0.214904 6.058 6.50833e-05 7.02312 0 8.00021L0 22.3909C7.66078e-05 23.9519 0.547969 25.4635 1.54818 26.662C2.54839 27.8606 3.93748 28.6701 5.47333 28.9495L13.8547 30.4735C15.2733 30.7313 16.7267 30.7313 18.1453 30.4735L26.5333 28.9495C28.068 28.6687 29.4555 27.8586 30.4544 26.6602C31.4533 25.4618 32.0002 23.951 32 22.3909V8.00021C32.0006 7.02347 31.7859 6.05861 31.371 5.17433C30.9562 4.29006 30.3515 3.50812 29.6 2.88421ZM14.6667 27.9042C14.5547 27.8882 14.4427 27.8695 14.3307 27.8495L5.95067 26.3269C5.02902 26.1592 4.19546 25.6733 3.59532 24.9541C2.99518 24.2348 2.66653 23.3277 2.66667 22.3909V8.00021C2.66667 6.93934 3.08809 5.92193 3.83824 5.17178C4.58839 4.42163 5.6058 4.00021 6.66667 4.00021C6.90812 4.00078 7.14905 4.02265 7.38667 4.06554L12.48 4.99887C13.0928 5.11101 13.647 5.43417 14.0465 5.91226C14.4459 6.39036 14.6653 6.99322 14.6667 7.61621V27.9042ZM29.3333 22.3909C29.3335 23.3277 29.0048 24.2348 28.4047 24.9541C27.8045 25.6733 26.971 26.1592 26.0493 26.3269L17.6693 27.8495C17.5573 27.8695 17.4453 27.8882 17.3333 27.9042V7.61621C17.3332 6.99169 17.5523 6.38695 17.9524 5.90742C18.3525 5.42789 18.9082 5.104 19.5227 4.99221L24.6173 4.05887C25.1943 3.9539 25.7873 3.97708 26.3543 4.12675C26.9213 4.27643 27.4484 4.54895 27.8984 4.92501C28.3484 5.30108 28.7102 5.77148 28.9582 6.3029C29.2061 6.83433 29.3342 7.41378 29.3333 8.00021V22.3909Z" fill="black"></path></g><defs><clipPath id="clip0_2052_469"><rect width="32" height="32" fill="white"></rect></clipPath></defs></svg>