<svg xmlns="http://www.w3.org/2000/svg" width="32" height="32" viewBox="0 0 32 32" fill="none"><g clip-path="url(#clip0_2049_449)"><path d="M30 22.3171C30 26.3582 26.6421 30 22.5 30C18.3579 30 15 26.3582 15 22.3171C15 18.276 18.3579 15 22.5 15C26.6421 15 30 18.276 30 22.3171Z" fill="#81EBE1"></path><path d="M22.6667 13.3853C17.5213 13.3853 13.3333 17.572 13.3333 22.7187C13.3333 27.836 17.5213 32 22.6667 32C27.812 32 32 27.8133 32 22.6667C32 17.5493 27.812 13.3853 22.6667 13.3853ZM22.6667 29.3333C18.9907 29.3333 16 26.3653 16 22.7187C16 19.0427 18.9907 16.052 22.6667 16.052C26.3427 16.052 29.3333 19.02 29.3333 22.6667C29.3333 26.3427 26.3427 29.3333 22.6667 29.3333ZM24.9427 23.0573C25.464 23.5787 25.464 24.4213 24.9427 24.9427C24.6827 25.2027 24.3413 25.3333 24 25.3333C23.6587 25.3333 23.3173 25.2027 23.0573 24.9427L21.724 23.6093C21.4733 23.3587 21.3333 23.02 21.3333 22.6667V20C21.3333 19.264 21.9293 18.6667 22.6667 18.6667C23.404 18.6667 24 19.264 24 20V22.1147L24.9427 23.0573ZM32 9.33333V12C32 12.736 31.404 13.3333 30.6667 13.3333C29.9293 13.3333 29.3333 12.736 29.3333 12V9.33333C29.3333 7.128 27.5387 5.33333 25.3333 5.33333H6.66667C4.46133 5.33333 2.66667 7.128 2.66667 9.33333V10.6667H14.6667C15.4027 10.6667 16 11.264 16 12C16 12.736 15.4027 13.3333 14.6667 13.3333H2.66667V25.3333C2.66667 27.5387 4.46133 29.3333 6.66667 29.3333H12C12.736 29.3333 13.3333 29.9307 13.3333 30.6667C13.3333 31.4027 12.736 32 12 32H6.66667C2.99067 32 0 29.0093 0 25.3333V9.33333C0 5.65733 2.99067 2.66667 6.66667 2.66667H8V1.33333C8 0.597333 8.59733 0 9.33333 0C10.0693 0 10.6667 0.597333 10.6667 1.33333V2.66667H21.3333V1.33333C21.3333 0.597333 21.9293 0 22.6667 0C23.404 0 24 0.597333 24 1.33333V2.66667H25.3333C29.0093 2.66667 32 5.65733 32 9.33333Z" fill="black"></path></g><defs><clipPath id="clip0_2049_449"><rect width="32" height="32" fill="white"></rect></clipPath></defs></svg>