<svg xmlns="http://www.w3.org/2000/svg" width="32" height="32" viewBox="0 0 32 32" fill="none"><g clip-path="url(#clip0_2051_464)"><path d="M2 12L16.1403 13.3432H31V30H2V12Z" fill="#81EBE1"></path><path d="M24.6667 19.3333C25.7707 19.3333 26.6667 20.2293 26.6667 21.3333C26.6667 22.4373 25.7707 23.3333 24.6667 23.3333C23.5627 23.3333 22.6667 22.4373 22.6667 21.3333C22.6667 20.2293 23.5627 19.3333 24.6667 19.3333ZM30.6667 13.3333C29.9293 13.3333 29.3333 13.9307 29.3333 14.6667V28C29.3333 28.736 28.736 29.3333 28 29.3333H6.66667C4.46133 29.3333 2.66667 27.5387 2.66667 25.3333V12C2.66667 12 2.66667 11.9947 2.66667 11.9933C3.80533 12.8467 5.204 13.3333 6.66533 13.3333H17.3333C18.0707 13.3333 18.6667 12.736 18.6667 12C18.6667 11.264 18.0707 10.6667 17.3333 10.6667H6.66667C5.52533 10.6667 4.46267 10.1587 3.71067 9.328C4.44267 8.51867 5.49067 8 6.66667 8H16C16.7373 8 17.3333 7.40267 17.3333 6.66667C17.3333 5.93067 16.7373 5.33333 16 5.33333H6.66667C2.96533 5.32533 0.0266667 8.40533 0 12V25.3333C0 29.0093 2.99067 32 6.66667 32H28C30.2053 32 32 30.2053 32 28V14.6667C32 13.9307 31.404 13.3333 30.6667 13.3333ZM23.3293 12.5133C24.416 13.6 26.1933 13.6093 27.2813 12.5253L30.2627 9.62267C30.7907 9.10933 30.8013 8.26533 30.2893 7.73733C29.7733 7.20933 28.9293 7.19733 28.404 7.712L26.6667 9.40267V1.33333C26.6667 0.597333 26.0707 0 25.3333 0C24.596 0 24 0.597333 24 1.33333V9.42667L22.2707 7.71867C21.7453 7.20133 20.904 7.20533 20.384 7.73067C19.8667 8.25467 19.872 9.09867 20.396 9.616L23.3293 12.5133Z" fill="black"></path></g><defs><clipPath id="clip0_2051_464"><rect width="32" height="32" fill="white"></rect></clipPath></defs></svg>