<svg xmlns="http://www.w3.org/2000/svg" width="32" height="32" viewBox="0 0 32 32" fill="none"><path d="M25 18.5C25.4 18.5 28.1667 20.8333 29.5 22L27.5 25.5L24 28L23 26.5L19 25V21C20.8333 20.1667 24.6 18.5 25 18.5Z" fill="#81EBE1"></path><path d="M24.5 8V4.5L21.5 2L16 1L9.5 2.5L4.5 7L1 12.5L1.5 19.5L4.5 25C5 24.3333 6 22.9 6 22.5V17L10.5 11.5L13 12.5L16 13.5C17.6667 13.1667 21.1 12.5 21.5 12.5C21.9 12.5 23.6667 9.5 24.5 8Z" fill="#81EBE1"></path><path d="M16 0C7.16308 0 0 7.16308 0 16C0 24.8369 7.16308 32 16 32C24.8369 32 32 24.8369 32 16C31.9877 7.16308 24.8369 0 16 0ZM16 2.46154C18.6215 2.46154 21.1938 3.22462 23.3846 4.65231V7.69231L19.9754 11.6554L15.1385 12.3077L15.0892 12.2708L12.0615 10.2892C10.9538 9.50154 9.41539 9.77231 8.62769 10.88C8.62769 10.8923 8.60308 10.9169 8.59077 10.9292L5.36615 15.7415C5.09539 16.1477 4.94769 16.6154 4.94769 17.0954L4.91077 22.6708L4.40615 23.0031C0.541538 16.6154 2.58462 8.29539 8.98462 4.41846C11.1015 3.13846 13.5262 2.46154 16 2.46154ZM5.89538 24.9969L6.27692 24.7385C6.96615 24.2831 7.38462 23.52 7.38462 22.6954L7.42154 17.12L10.6462 12.3077C10.6462 12.3077 10.6831 12.3323 10.6954 12.3446L13.7231 14.3262C14.2277 14.6831 14.8554 14.8308 15.4708 14.7569L20.32 14.1046C20.9231 14.0308 21.4646 13.7231 21.8585 13.2677L25.2677 9.30462C25.6492 8.86154 25.8585 8.28308 25.8585 7.70462V6.73231C29.2431 10.3138 30.4123 15.4708 28.8985 20.1723L26.4123 17.9077C25.7108 17.2554 24.6892 17.0831 23.8031 17.44L19.1138 19.3846C18.3138 19.7169 17.7477 20.4431 17.6246 21.3046L17.2554 23.7908C17.0708 25.0338 17.8585 26.2154 19.0646 26.5354L22.3631 27.4092L22.7323 27.7785C17.1692 30.9662 10.1415 29.8215 5.89538 25.0215V24.9969ZM24.7754 26.3138L24.1108 25.6492C23.8031 25.3415 23.4215 25.12 22.9908 25.0092L19.6923 24.1354L20.0615 21.6492L24.7508 19.7046L27.8523 22.5477C27.0646 23.9754 26.0185 25.2554 24.7754 26.3262V26.3138Z" fill="black"></path></svg>