<svg xmlns="http://www.w3.org/2000/svg" width="32" height="26" viewBox="0 0 32 26" fill="none"><path d="M6.39712 24.7257V17.7957H1.06641V22.5934L1.59948 24.7257H6.39712Z" fill="#81EBE1"></path><path d="M21.8562 1.27051L24.5216 2.86972L25.0546 4.46894H27.1869L30.3853 6.06815L30.9184 9.26658L29.8523 11.3989H26.1208L24.5216 10.8658L23.4554 8.73351H20.7901L18.6578 7.13429V3.40279L21.8562 1.27051Z" fill="#81EBE1"></path><path d="M30.6943 15.8015C29.8947 15.1831 28.8392 14.9699 27.8583 15.2365L22.2824 16.5158C22.7622 14.5115 21.5148 12.4965 19.5104 12.0274C19.2332 11.9634 18.9347 11.9314 18.6468 11.9314H11.9728C10.8427 11.9314 9.75521 12.3792 8.9556 13.1788L5.93842 16.196H2.13229C0.959529 16.196 0 17.1555 0 18.3283V23.659C0 24.8317 0.959529 25.7913 2.13229 25.7913H15.9921C16.0774 25.7913 16.1627 25.7806 16.248 25.7593L24.7772 23.627C24.8305 23.6163 24.8838 23.595 24.9371 23.5737L30.1185 21.3668L30.1825 21.3455C31.803 20.5352 32.4641 18.5628 31.6538 16.9423C31.4299 16.4945 31.1101 16.1 30.7156 15.8015H30.6943ZM2.13229 18.3283H5.33072V23.659H2.13229V18.3283ZM29.2443 19.4264L24.1801 21.58L15.8642 23.659H7.463V17.6992L10.4802 14.6821C10.8747 14.2769 11.4184 14.053 11.9834 14.053H18.6575C19.5424 14.053 20.2567 14.7673 20.2567 15.6522C20.2567 16.5371 19.5424 17.2515 18.6575 17.2515H14.926C14.3396 17.2515 13.8599 17.7312 13.8599 18.3176C13.8599 18.904 14.3396 19.3837 14.926 19.3837H19.1906C19.2759 19.3837 19.3505 19.3837 19.4251 19.3624L28.3594 17.3048H28.4021C29.0098 17.1235 29.6388 17.486 29.8094 18.0937C29.9586 18.6161 29.7134 19.1599 29.2336 19.4157L29.2443 19.4264ZM21.8559 9.79912C22.1225 9.79912 22.3783 9.7778 22.6449 9.73515C23.4871 12.2512 26.2165 13.5946 28.7219 12.7523C31.238 11.9101 32.5813 9.18076 31.7391 6.67532C30.9928 4.44708 28.7326 3.08242 26.4084 3.47689C25.5661 0.960794 22.8474 -0.382546 20.3314 0.459707C17.8153 1.30196 16.4719 4.02063 17.3142 6.53672C17.9752 8.48777 19.7983 9.80978 21.8666 9.79912H21.8559ZM29.852 8.19991C29.852 9.67118 28.6579 10.8653 27.1867 10.8653C25.7154 10.8653 24.5213 9.67118 24.5213 8.19991C24.5213 6.72863 25.7154 5.53455 27.1867 5.53455C28.6579 5.53455 29.852 6.72863 29.852 8.19991ZM21.8559 2.33612C23.05 2.33612 24.0948 3.13573 24.4253 4.28716C23.3166 5.06545 22.5916 6.27019 22.421 7.61353C22.2397 7.65617 22.0478 7.6775 21.8559 7.6775C20.3847 7.6775 19.1906 6.48342 19.1906 5.01214C19.1906 3.54086 20.3847 2.34678 21.8559 2.34678V2.33612Z" fill="black"></path></svg>